<?xml version="1.0" standalone="no"?><!DOCTYPE svg PUBLIC "-//W3C//DTD SVG 1.1//EN" "http://www.w3.org/Graphics/SVG/1.1/DTD/svg11.dtd"><svg t="1519284961479" class="icon" style="" viewBox="0 0 1024 1024" version="1.1" xmlns="http://www.w3.org/2000/svg" p-id="2707" xmlns:xlink="http://www.w3.org/1999/xlink" width="200" height="200"><defs><style type="text/css"></style></defs><path d="M102.4 204.8l819.2 0c56 0 102.4-46.4 102.4-102.4C1024 46.4 977.6 0 921.6 0L102.4 0C46.4 0 0 46.4 0 102.4 0 158.4 46.4 204.8 102.4 204.8z" p-id="2708"></path><path d="M921.6 409.6 102.4 409.6C46.4 409.6 0 456 0 512c0 56 46.4 102.4 102.4 102.4l819.2 0c56 0 102.4-46.4 102.4-102.4C1024 456 977.6 409.6 921.6 409.6z" p-id="2709"></path><path d="M921.6 819.2 102.4 819.2c-56 0-102.4 46.4-102.4 102.4S46.4 1024 102.4 1024l819.2 0c56 0 102.4-46.4 102.4-102.4S977.6 819.2 921.6 819.2z" p-id="2710"></path></svg>