<?xml version="1.0" standalone="no"?><!DOCTYPE svg PUBLIC "-//W3C//DTD SVG 1.1//EN" "http://www.w3.org/Graphics/SVG/1.1/DTD/svg11.dtd"><svg t="1519284948485" class="icon" style="" viewBox="0 0 1024 1024" version="1.1" xmlns="http://www.w3.org/2000/svg" p-id="2491" xmlns:xlink="http://www.w3.org/1999/xlink" width="200" height="200"><defs><style type="text/css"></style></defs><path d="M825.156 144.582 200.533 144.582c-57.502 0-104.103 46.598-104.103 104.1l0 416.842c0 57.46 46.6 104.101 104.103 104.101l204.412 0 107.901 131.76 107.615-131.76 204.695 0c57.502 0 104.144-46.64 104.144-104.101L929.3 248.682c0.001-57.5-46.639-104.1-104.142-104.1L825.156 144.582zM278.588 509.174c-28.75 0-52.049-23.3-52.049-52.091 0-28.75 23.299-52.049 52.049-52.049 28.753 0 52.055 23.3 52.055 52.049C330.641 485.873 307.342 509.174 278.588 509.174L278.588 509.174zM512.846 509.174c-28.75 0-52.051-23.3-52.051-52.091 0-28.75 23.3-52.049 52.051-52.049 28.749 0 52.05 23.3 52.05 52.049C564.896 485.873 541.595 509.174 512.846 509.174zM747.098 509.174c-28.753 0-52.051-23.3-52.051-52.091 0-28.75 23.299-52.049 52.051-52.049s52.052 23.3 52.052 52.049C799.149 485.873 775.85 509.174 747.098 509.174z" p-id="2492"></path></svg>