<?xml version="1.0" standalone="no"?><!DOCTYPE svg PUBLIC "-//W3C//DTD SVG 1.1//EN" "http://www.w3.org/Graphics/SVG/1.1/DTD/svg11.dtd"><svg t="1519284943668" class="icon" style="" viewBox="0 0 1024 1024" version="1.1" xmlns="http://www.w3.org/2000/svg" p-id="2382" xmlns:xlink="http://www.w3.org/1999/xlink" width="200" height="200"><defs><style type="text/css"></style></defs><path d="M958.668551 510.25117c0 81.694627-184.290283 255.965719-446.910563 255.965719-255.940137 0-446.915679-171.402765-446.915679-255.965719 0-84.544535 191.798281-255.68738 446.915679-255.68738C776.444323 254.56379 958.730972 425.706635 958.668551 510.25117L958.668551 510.25117zM512.150938 301.255205c-118.946043 0-215.365023 93.638657-215.365023 209.139228 0 115.500571 96.41898 209.140251 215.365023 209.140251 118.976742 0 215.404931-93.63968 215.404931-209.140251C727.551776 394.893862 631.127679 301.255205 512.150938 301.255205L512.150938 301.255205zM512.150938 301.255205" p-id="2383"></path><path d="M512.001535 383.545396c-68.470441 0-123.971499 56.761772-123.971499 126.785591 0 70.02075 55.502082 126.794801 123.971499 126.794801 68.465325 0 123.947963-56.773028 123.947963-126.794801C635.949498 440.307168 580.466859 383.545396 512.001535 383.545396zM559.306934 524.548804c-32.041764 0-58.014298-25.974581-58.014298-58.014298s25.973558-58.014298 58.014298-58.014298c32.04074 0 58.013275 25.973558 58.013275 58.014298S591.347674 524.548804 559.306934 524.548804z" p-id="2384"></path></svg>