<?xml version="1.0" standalone="no"?><!DOCTYPE svg PUBLIC "-//W3C//DTD SVG 1.1//EN" "http://www.w3.org/Graphics/SVG/1.1/DTD/svg11.dtd"><svg t="1519284919395" class="icon" style="" viewBox="0 0 1024 1024" version="1.1" xmlns="http://www.w3.org/2000/svg" p-id="1940" xmlns:xlink="http://www.w3.org/1999/xlink" width="200" height="200"><defs><style type="text/css"></style></defs><path d="M513.431094 74.581626c-199.416795 0-361.077685 160.744008-361.077685 359.034143l0 515.802606 63.570851-70.797439 71.197552 70.797439 76.283384-70.797439 68.656683 70.797439 78.828346-70.797439 66.110697 70.797439 78.828346-70.797439 71.201645 70.797439 76.283384-70.797439 71.192436 70.797439L874.506732 433.615769C874.507756 235.326657 712.855052 74.581626 513.431094 74.581626zM448.47264 489.24167c-30.891568 0-55.940057-24.904203-55.940057-55.625902s25.048489-55.625902 55.940057-55.625902c30.896684 0 55.94415 24.904203 55.94415 55.625902S479.369324 489.24167 448.47264 489.24167zM580.701197 489.24167c-30.896684 0-55.940057-24.904203-55.940057-55.625902s25.043373-55.625902 55.940057-55.625902c30.895661 0 55.94415 24.904203 55.94415 55.625902S611.596857 489.24167 580.701197 489.24167z" p-id="1941"></path></svg>