<?xml version="1.0" standalone="no"?><!DOCTYPE svg PUBLIC "-//W3C//DTD SVG 1.1//EN" "http://www.w3.org/Graphics/SVG/1.1/DTD/svg11.dtd"><svg t="1519284966612" class="icon" style="" viewBox="0 0 1024 1024" version="1.1" xmlns="http://www.w3.org/2000/svg" p-id="2817" xmlns:xlink="http://www.w3.org/1999/xlink" width="200" height="200"><defs><style type="text/css"></style></defs><path d="M860.16 395.946667H802.133333v-58.026667c0-160.426667-129.706667-290.133333-290.133333-290.133333s-290.133333 129.706667-290.133333 290.133333v58.026667H163.84c-32.426667 0-58.026667 25.6-58.026667 58.026666v464.213334c0 30.72 25.6 58.026667 58.026667 58.026666h694.613333c32.426667 0 58.026667-25.6 58.026667-58.026666V453.973333c1.706667-30.72-25.6-58.026667-56.32-58.026666zM558.08 672.426667v143.36c0 23.893333-18.773333 44.373333-44.373333 44.373333-23.893333 0-42.666667-20.48-42.666667-44.373333v-139.946667c-27.306667-15.36-46.08-44.373333-46.08-76.8 0-47.786667 39.253333-87.04 87.04-87.04s87.04 39.253333 87.04 87.04c0 30.72-17.066667 58.026667-40.96 73.386667z m128-276.48H337.92v-58.026667c0-95.573333 78.506667-174.08 174.08-174.08s174.08 78.506667 174.08 174.08v58.026667z" p-id="2818"></path></svg>