<?xml version="1.0" standalone="no"?><!DOCTYPE svg PUBLIC "-//W3C//DTD SVG 1.1//EN" "http://www.w3.org/Graphics/SVG/1.1/DTD/svg11.dtd"><svg t="1519284932703" class="icon" style="" viewBox="0 0 1024 1024" version="1.1" xmlns="http://www.w3.org/2000/svg" p-id="2166" xmlns:xlink="http://www.w3.org/1999/xlink" width="200" height="200"><defs><style type="text/css"></style></defs><path d="M78.443 550.032h733.558L624.682 730.36c-4.795 4.796-4.795 12.57 0 17.367l37.627 37.627c4.796 4.795 12.57 4.795 17.367 0l235.807-227.011c0.272-0.229 0.541-0.465 0.797-0.721l1.259-1.259 36.367-35.009c2.567-2.568 3.746-5.99 3.564-9.352 0.188-3.369-0.991-6.8-3.562-9.372l-37.627-36.267a12.924 12.924 0 0 0-0.752-0.68l-235.852-227.05c-4.796-4.797-12.57-4.797-17.367 0l-37.627 37.627c-4.795 4.795-4.795 12.569 0 17.367l185.562 178.637h-731.8c-6.783 0-12.28 5.498-12.28 12.28v53.213c0 6.781 5.497 12.28 12.28 12.28z" p-id="2167"></path></svg>